<svg xmlns="http://www.w3.org/2000/svg" viewBox="0 0 1512 1325" preserveAspectRatio="xMidYMid" width="1512" height="1325" xmlns:xlink="http://www.w3.org/1999/xlink" style="display:block;width:1512px;height:1325px;;animation:none"><g><g transform="matrix(0.9659258262890683,0.25881904510252074,-0.25881904510252074,0.9659258262890683,197.22769270588435,-40.59305801401342)" style="transform:none;;animation:none"><path stroke-width="2.5" stroke-opacity="0" stroke="rgb(0, 255, 255)" fill="none" d="M-378 -97.5c378 0 756 195 1134 195c378 0 756 -195 1134 -195c378 0 756 195 1134 195c378 0 756 -195 1134 -195" transform="matrix(1,0,0,1,0,0)" style="fill:none;stroke:rgb(0, 255, 255);;animation:none"></path></g>
<g transform="matrix(0.9659258262890683,0.25881904510252074,-0.25881904510252074,0.9659258262890683,197.22769270588435,1011.3769126891116)" style="transform:none;;animation:none"><path stroke-width="2.5" stroke-opacity="0" stroke="rgb(0, 255, 255)" fill="none" d="M-378 -97.34384155273438c378 0 756 194.68768310546875 1134 194.68768310546875c378 0 756 -194.68768310546875 1134 -194.68768310546875c378 0 756 194.68768310546875 1134 194.68768310546875c378 0 756 -194.68768310546875 1134 -194.68768310546875" transform="matrix(1,0,0,1,-27.490907669067383,0)" style="fill:none;stroke:rgb(0, 255, 255);;animation:none"></path></g>
<g transform="matrix(0.9659258262890683,0.25881904510252074,-0.25881904510252074,0.9659258262890683,197.22769270588435,-24.533060455419673)" style="transform:none;;animation:none"><path stroke-width="2.5" stroke-opacity="0" stroke="rgb(0, 255, 255)" fill="none" d="M-378 -96.86136627197266c378 0 756 193.7227325439453 1134 193.7227325439453c378 0 756 -193.7227325439453 1134 -193.7227325439453c378 0 756 193.7227325439453 1134 193.7227325439453c378 0 756 -193.7227325439453 1134 -193.7227325439453" transform="matrix(1,0,0,1,-54.981815338134766,0)" style="fill:none;stroke:rgb(0, 255, 255);;animation:none"></path></g>
<g transform="matrix(0.9659258262890683,0.25881904510252074,-0.25881904510252074,0.9659258262890683,197.22769270588435,995.3169761656741)" style="transform:none;;animation:none"><path stroke-width="2.5" stroke-opacity="0" stroke="rgb(0, 255, 255)" fill="none" d="M-378 -96.03031158447266c378 0 756 192.0606231689453 1134 192.0606231689453c378 0 756 -192.0606231689453 1134 -192.0606231689453c378 0 756 192.0606231689453 1134 192.0606231689453c378 0 756 -192.0606231689453 1134 -192.0606231689453" transform="matrix(1,0,0,1,-82.47272491455078,0)" style="fill:none;stroke:rgb(0, 255, 255);;animation:none"></path></g>
<g transform="matrix(0.9659258262890683,0.25881904510252074,-0.25881904510252074,0.9659258262890683,197.22769270588435,-8.473062896825923)" style="transform:none;;animation:none"><path stroke-width="2.5" stroke-opacity="0" stroke="rgb(0, 255, 255)" fill="none" d="M-378 -94.82665252685547c378 0 756 189.65330505371094 1134 189.65330505371094c378 0 756 -189.65330505371094 1134 -189.65330505371094c378 0 756 189.65330505371094 1134 189.65330505371094c378 0 756 -189.65330505371094 1134 -189.65330505371094" transform="matrix(1,0,0,1,-109.96363067626953,0)" style="fill:none;stroke:rgb(0, 255, 255);;animation:none"></path></g>
<g transform="matrix(0.9659258262890683,0.25881904510252074,-0.25881904510252074,0.9659258262890683,197.22769270588435,979.2569175719241)" style="transform:none;;animation:none"><path stroke-width="2.5" stroke-opacity="0" stroke="rgb(0, 255, 255)" fill="none" d="M-378 -93.22459411621094c378 0 756 186.44918823242188 1134 186.44918823242188c378 0 756 -186.44918823242188 1134 -186.44918823242188c378 0 756 186.44918823242188 1134 186.44918823242188c378 0 756 -186.44918823242188 1134 -186.44918823242188" transform="matrix(1,0,0,1,-137.4545440673828,0)" style="fill:none;stroke:rgb(0, 255, 255);;animation:none"></path></g>
<g transform="matrix(0.9659258262890683,0.25881904510252074,-0.25881904510252074,0.9659258262890683,197.22769270588435,7.5869346617678275)" style="transform:none;;animation:none"><path stroke-width="2.5" stroke-opacity="0" stroke="rgb(0, 255, 255)" fill="none" d="M-378 -91.19658660888672c378 0 756 182.39317321777344 1134 182.39317321777344c378 0 756 -182.39317321777344 1134 -182.39317321777344c378 0 756 182.39317321777344 1134 182.39317321777344c378 0 756 -182.39317321777344 1134 -182.39317321777344" transform="matrix(1,0,0,1,-164.94544982910156,0)" style="fill:none;stroke:rgb(0, 255, 255);;animation:none"></path></g>
<g transform="matrix(0.9659258262890683,0.25881904510252074,-0.25881904510252074,0.9659258262890683,197.22769270588435,963.1969810484866)" style="transform:none;;animation:none"><path stroke-width="2.5" stroke-opacity="0" stroke="rgb(0, 255, 255)" fill="none" d="M-378 -88.71353149414062c378 0 756 177.42706298828125 1134 177.42706298828125c378 0 756 -177.42706298828125 1134 -177.42706298828125c378 0 756 177.42706298828125 1134 177.42706298828125c378 0 756 -177.42706298828125 1134 -177.42706298828125" transform="matrix(1,0,0,1,-192.43637084960938,0)" style="fill:none;stroke:rgb(0, 255, 255);;animation:none"></path></g>
<g transform="matrix(0.9659258262890683,0.25881904510252074,-0.25881904510252074,0.9659258262890683,197.22769270588435,23.64694747915064)" style="transform:none;;animation:none"><path stroke-width="2.5" stroke-opacity="0" stroke="rgb(0, 255, 255)" fill="none" d="M-378 -85.74506378173828c378 0 756 171.49012756347656 1134 171.49012756347656c378 0 756 -171.49012756347656 1134 -171.49012756347656c378 0 756 171.49012756347656 1134 171.49012756347656c378 0 756 -171.49012756347656 1134 -171.49012756347656" transform="matrix(1,0,0,1,-219.92726135253906,0)" style="fill:none;stroke:rgb(0, 255, 255);;animation:none"></path></g>
<g transform="matrix(0.9659258262890683,0.25881904510252074,-0.25881904510252074,0.9659258262890683,197.22769270588435,947.1369224547366)" style="transform:none;;animation:none"><path stroke-width="2.5" stroke-opacity="0" stroke="rgb(0, 255, 255)" fill="none" d="M-378 -82.26014709472656c378 0 756 164.52029418945312 1134 164.52029418945312c378 0 756 -164.52029418945312 1134 -164.52029418945312c378 0 756 164.52029418945312 1134 164.52029418945312c378 0 756 -164.52029418945312 1134 -164.52029418945312" transform="matrix(1,0,0,1,-247.41818237304688,0)" style="fill:none;stroke:rgb(0, 255, 255);;animation:none"></path></g>
<g transform="matrix(0.9659258262890683,0.25881904510252074,-0.25881904510252074,0.9659258262890683,197.22769270588435,39.70694503774439)" style="transform:none;;animation:none"><path stroke-width="2.5" stroke-opacity="0" stroke="rgb(0, 255, 255)" fill="none" d="M-378 -78.22794342041016c378 0 756 156.4558868408203 1134 156.4558868408203c378 0 756 -156.4558868408203 1134 -156.4558868408203c378 0 756 156.4558868408203 1134 156.4558868408203c378 0 756 -156.4558868408203 1134 -156.4558868408203" transform="matrix(1,0,0,1,-274.9090881347656,0)" style="fill:none;stroke:rgb(0, 255, 255);;animation:none"></path></g>
<g transform="matrix(0.9659258262890683,0.25881904510252074,-0.25881904510252074,0.9659258262890683,197.22769270588435,931.0769859312991)" style="transform:none;;animation:none"><path stroke-width="2.5" stroke-opacity="0" stroke="rgb(0, 255, 255)" fill="none" d="M-378 -73.6192398071289c378 0 756 147.2384796142578 1134 147.2384796142578c378 0 756 -147.2384796142578 1134 -147.2384796142578c378 0 756 147.2384796142578 1134 147.2384796142578c378 0 756 -147.2384796142578 1134 -147.2384796142578" transform="matrix(1,0,0,1,-302.4000244140625,0)" style="fill:none;stroke:rgb(0, 255, 255);;animation:none"></path></g>
<g transform="matrix(0.9659258262890683,0.25881904510252074,-0.25881904510252074,0.9659258262890683,197.22769270588435,55.76694259633814)" style="transform:none;;animation:none"><path stroke-width="2.5" stroke-opacity="0" stroke="rgb(0, 255, 255)" fill="none" d="M-378 -68.40835571289062c378 0 756 136.81671142578125 1134 136.81671142578125c378 0 756 -136.81671142578125 1134 -136.81671142578125c378 0 756 136.81671142578125 1134 136.81671142578125c378 0 756 -136.81671142578125 1134 -136.81671142578125" transform="matrix(1,0,0,1,-329.8908996582031,0)" style="fill:none;stroke:rgb(0, 255, 255);;animation:none"></path></g>
<g transform="matrix(0.9659258262890683,0.25881904510252074,-0.25881904510252074,0.9659258262890683,197.22769270588435,915.0169273375491)" style="transform:none;;animation:none"><path stroke-width="2.5" stroke-opacity="0" stroke="rgb(0, 255, 255)" fill="none" d="M-378 -62.57590866088867c378 0 756 125.15181732177734 1134 125.15181732177734c378 0 756 -125.15181732177734 1134 -125.15181732177734c378 0 756 125.15181732177734 1134 125.15181732177734c378 0 756 -125.15181732177734 1134 -125.15181732177734" transform="matrix(1,0,0,1,-357.3818054199219,0)" style="fill:none;stroke:rgb(0, 255, 255);;animation:none"></path></g>
<g transform="matrix(0.9659258262890683,0.25881904510252074,-0.25881904510252074,0.9659258262890683,197.22769270588435,71.82694015493189)" style="transform:none;;animation:none"><path stroke-width="2.5" stroke-opacity="0" stroke="rgb(0, 255, 255)" fill="none" d="M-378 -56.112369537353516c378 0 756 112.22473907470703 1134 112.22473907470703c378 0 756 -112.22473907470703 1134 -112.22473907470703c378 0 756 112.22473907470703 1134 112.22473907470703c378 0 756 -112.22473907470703 1134 -112.22473907470703" transform="matrix(1,0,0,1,-384.87274169921875,0)" style="fill:none;stroke:rgb(0, 255, 255);;animation:none"></path></g>
<g transform="matrix(0.9659258262890683,0.25881904510252074,-0.25881904510252074,0.9659258262890683,197.22769270588435,898.9569908141116)" style="transform:none;;animation:none"><path stroke-width="2.5" stroke-opacity="0" stroke="rgb(0, 255, 255)" fill="none" d="M-378 -49.02238845825195c378 0 756 98.0447769165039 1134 98.0447769165039c378 0 756 -98.0447769165039 1134 -98.0447769165039c378 0 756 98.0447769165039 1134 98.0447769165039c378 0 756 -98.0447769165039 1134 -98.0447769165039" transform="matrix(1,0,0,1,-412.3636474609375,0)" style="fill:none;stroke:rgb(0, 255, 255);;animation:none"></path></g>
<g transform="matrix(0.9659258262890683,0.25881904510252074,-0.25881904510252074,0.9659258262890683,197.22769270588435,87.8869529723147)" style="transform:none;;animation:none"><path stroke-width="2.5" stroke-opacity="0" stroke="rgb(0, 255, 255)" fill="none" d="M-378 -41.32978057861328c378 0 756 82.65956115722656 1134 82.65956115722656c378 0 756 -82.65956115722656 1134 -82.65956115722656c378 0 756 82.65956115722656 1134 82.65956115722656c378 0 756 -82.65956115722656 1134 -82.65956115722656" transform="matrix(1,0,0,1,-439.8545227050781,0)" style="fill:none;stroke:rgb(0, 255, 255);;animation:none"></path></g>
<g transform="matrix(0.9659258262890683,0.25881904510252074,-0.25881904510252074,0.9659258262890683,197.22769270588435,882.8869224547366)" style="transform:none;;animation:none"><path stroke-width="2.5" stroke-opacity="0" stroke="rgb(0, 255, 255)" fill="none" d="M-378 -33.08221435546875c378 0 756 66.1644287109375 1134 66.1644287109375c378 0 756 -66.1644287109375 1134 -66.1644287109375c378 0 756 66.1644287109375 1134 66.1644287109375c378 0 756 -66.1644287109375 1134 -66.1644287109375" transform="matrix(1,0,0,1,-467.345458984375,0)" style="fill:none;stroke:rgb(0, 255, 255);;animation:none"></path></g>
<g transform="matrix(0.9659258262890683,0.25881904510252074,-0.25881904510252074,0.9659258262890683,197.22769270588435,103.95692977895533)" style="transform:none;;animation:none"><path stroke-width="2.5" stroke-opacity="0" stroke="rgb(0, 255, 255)" fill="none" d="M-378 -24.354944229125977c378 0 756 48.70988845825195 1134 48.70988845825195c378 0 756 -48.70988845825195 1134 -48.70988845825195c378 0 756 48.70988845825195 1134 48.70988845825195c378 0 756 -48.70988845825195 1134 -48.70988845825195" transform="matrix(1,0,0,1,-494.83636474609375,0)" style="fill:none;stroke:rgb(0, 255, 255);;animation:none"></path></g>
<g transform="matrix(0.9659258262890683,0.25881904510252074,-0.25881904510252074,0.9659258262890683,197.22769270588435,866.8269859312991)" style="transform:none;;animation:none"><path stroke-width="2.5" stroke-opacity="0" stroke="rgb(0, 255, 255)" fill="none" d="M-378 -15.25184440612793c378 0 756 30.50368881225586 1134 30.50368881225586c378 0 756 -30.50368881225586 1134 -30.50368881225586c378 0 756 30.50368881225586 1134 30.50368881225586c378 0 756 -30.50368881225586 1134 -30.50368881225586" transform="matrix(1,0,0,1,-522.3272705078125,0)" style="fill:none;stroke:rgb(0, 255, 255);;animation:none"></path></g>
<g transform="matrix(0.9659258262890683,0.25881904510252074,-0.25881904510252074,0.9659258262890683,197.22769270588435,120.01692733754908)" style="transform:none;;animation:none"><path stroke-width="2.5" stroke-opacity="0.05555555555555555" stroke="rgb(0, 255, 255)" fill="none" d="M-378 -5.902663707733154c378 0 756 11.805327415466309 1134 11.805327415466309c378 0 756 -11.805327415466309 1134 -11.805327415466309c378 0 756 11.805327415466309 1134 11.805327415466309c378 0 756 -11.805327415466309 1134 -11.805327415466309" transform="matrix(1,0,0,1,-549.8181762695312,0)" style="fill:none;stroke:rgb(0, 255, 255);;animation:none"></path></g>
<g transform="matrix(0.9659258262890683,0.25881904510252074,-0.25881904510252074,0.9659258262890683,197.22769270588435,850.7669273375491)" style="transform:none;;animation:none"><path stroke-width="2.5" stroke-opacity="0.1111111111111111" stroke="rgb(0, 255, 255)" fill="none" d="M-378 3.5440680980682373c378 0 756 -7.088136196136475 1134 -7.088136196136475c378 0 756 7.088136196136475 1134 7.088136196136475c378 0 756 -7.088136196136475 1134 -7.088136196136475c378 0 756 7.088136196136475 1134 7.088136196136475" transform="matrix(1,0,0,1,-577.30908203125,0)" style="fill:none;stroke:rgb(0, 255, 255);;animation:none"></path></g>
<g transform="matrix(0.9659258262890683,0.25881904510252074,-0.25881904510252074,0.9659258262890683,197.22769270588435,136.07695541372095)" style="transform:none;;animation:none"><path stroke-width="2.5" stroke-opacity="0.16666666666666666" stroke="rgb(0, 255, 255)" fill="none" d="M-378 12.932074546813965c378 0 756 -25.86414909362793 1134 -25.86414909362793c378 0 756 25.86414909362793 1134 25.86414909362793c378 0 756 -25.86414909362793 1134 -25.86414909362793c378 0 756 25.86414909362793 1134 25.86414909362793" transform="matrix(1,0,0,1,-604.800048828125,0)" style="fill:none;stroke:rgb(0, 255, 255);;animation:none"></path></g>
<g transform="matrix(0.9659258262890683,0.25881904510252074,-0.25881904510252074,0.9659258262890683,197.22769270588435,834.7069297789553)" style="transform:none;;animation:none"><path stroke-width="2.5" stroke-opacity="0.2222222222222222" stroke="rgb(0, 255, 255)" fill="none" d="M-378 22.1097412109375c378 0 756 -44.219482421875 1134 -44.219482421875c378 0 756 44.219482421875 1134 44.219482421875c378 0 756 -44.219482421875 1134 -44.219482421875c378 0 756 44.219482421875 1134 44.219482421875" transform="matrix(1,0,0,1,-632.2908935546875,0)" style="fill:none;stroke:rgb(0, 255, 255);;animation:none"></path></g>
<g transform="matrix(0.9659258262890683,0.25881904510252074,-0.25881904510252074,0.9659258262890683,197.22769270588435,152.1369529723147)" style="transform:none;;animation:none"><path stroke-width="2.5" stroke-opacity="0.2777777777777778" stroke="rgb(0, 255, 255)" fill="none" d="M-378 30.941802978515625c378 0 756 -61.88360595703125 1134 -61.88360595703125c378 0 756 61.88360595703125 1134 61.88360595703125c378 0 756 -61.88360595703125 1134 -61.88360595703125c378 0 756 61.88360595703125 1134 61.88360595703125" transform="matrix(1,0,0,1,-659.7817993164062,0)" style="fill:none;stroke:rgb(0, 255, 255);;animation:none"></path></g>
<g transform="matrix(0.9659258262890683,0.25881904510252074,-0.25881904510252074,0.9659258262890683,197.22769270588435,818.6469322203616)" style="transform:none;;animation:none"><path stroke-width="2.5" stroke-opacity="0.3333333333333333" stroke="rgb(0, 255, 255)" fill="none" d="M-378 39.317466735839844c378 0 756 -78.63493347167969 1134 -78.63493347167969c378 0 756 78.63493347167969 1134 78.63493347167969c378 0 756 -78.63493347167969 1134 -78.63493347167969c378 0 756 78.63493347167969 1134 78.63493347167969" transform="matrix(1,0,0,1,-687.2727661132812,0)" style="fill:none;stroke:rgb(0, 255, 255);;animation:none"></path></g>
<g transform="matrix(0.9659258262890683,0.25881904510252074,-0.25881904510252074,0.9659258262890683,197.22769270588435,168.19695053090845)" style="transform:none;;animation:none"><path stroke-width="2.5" stroke-opacity="0.3888888888888889" stroke="rgb(0, 255, 255)" fill="none" d="M-378 47.15431594848633c378 0 756 -94.30863189697266 1134 -94.30863189697266c378 0 756 94.30863189697266 1134 94.30863189697266c378 0 756 -94.30863189697266 1134 -94.30863189697266c378 0 756 94.30863189697266 1134 94.30863189697266" transform="matrix(1,0,0,1,-714.7636108398438,0)" style="fill:none;stroke:rgb(0, 255, 255);;animation:none"></path></g>
<g transform="matrix(0.9659258262890683,0.25881904510252074,-0.25881904510252074,0.9659258262890683,197.22769270588435,802.5869346617678)" style="transform:none;;animation:none"><path stroke-width="2.5" stroke-opacity="0.4444444444444444" stroke="rgb(0, 255, 255)" fill="none" d="M-378 54.398033142089844c378 0 756 -108.79606628417969 1134 -108.79606628417969c378 0 756 108.79606628417969 1134 108.79606628417969c378 0 756 -108.79606628417969 1134 -108.79606628417969c378 0 756 108.79606628417969 1134 108.79606628417969" transform="matrix(1,0,0,1,-742.2545166015625,0)" style="fill:none;stroke:rgb(0, 255, 255);;animation:none"></path></g>
<g transform="matrix(0.9659258262890683,0.25881904510252074,-0.25881904510252074,0.9659258262890683,197.22769270588435,184.2569480895022)" style="transform:none;;animation:none"><path stroke-width="2.5" stroke-opacity="0.5" stroke="rgb(0, 255, 255)" fill="none" d="M-378 61.019290924072266c378 0 756 -122.03858184814453 1134 -122.03858184814453c378 0 756 122.03858184814453 1134 122.03858184814453c378 0 756 -122.03858184814453 1134 -122.03858184814453c378 0 756 122.03858184814453 1134 122.03858184814453" transform="matrix(1,0,0,1,-769.7454833984375,0)" style="fill:none;stroke:rgb(0, 255, 255);;animation:none"></path></g>
<g transform="matrix(0.9659258262890683,0.25881904510252074,-0.25881904510252074,0.9659258262890683,197.22769270588435,786.5269371031741)" style="transform:none;;animation:none"><path stroke-width="2.5" stroke-opacity="0.5555555555555556" stroke="rgb(0, 255, 255)" fill="none" d="M-378 67.00908660888672c378 0 756 -134.01817321777344 1134 -134.01817321777344c378 0 756 134.01817321777344 1134 134.01817321777344c378 0 756 -134.01817321777344 1134 -134.01817321777344c378 0 756 134.01817321777344 1134 134.01817321777344" transform="matrix(1,0,0,1,-797.236328125,0)" style="fill:none;stroke:rgb(0, 255, 255);;animation:none"></path></g>
<g transform="matrix(0.9659258262890683,0.25881904510252074,-0.25881904510252074,0.9659258262890683,197.22769270588435,200.31694564809595)" style="transform:none;;animation:none"><path stroke-width="2.5" stroke-opacity="0.6111111111111112" stroke="rgb(0, 255, 255)" fill="none" d="M-378 72.37387084960938c378 0 756 -144.74774169921875 1134 -144.74774169921875c378 0 756 144.74774169921875 1134 144.74774169921875c378 0 756 -144.74774169921875 1134 -144.74774169921875c378 0 756 144.74774169921875 1134 144.74774169921875" transform="matrix(1,0,0,1,-824.727294921875,0)" style="fill:none;stroke:rgb(0, 255, 255);;animation:none"></path></g>
<g transform="matrix(0.9659258262890683,0.25881904510252074,-0.25881904510252074,0.9659258262890683,197.22769270588435,770.4669395445803)" style="transform:none;;animation:none"><path stroke-width="2.5" stroke-opacity="0.6666666666666666" stroke="rgb(0, 255, 255)" fill="none" d="M-378 77.13090515136719c378 0 756 -154.26181030273438 1134 -154.26181030273438c378 0 756 154.26181030273438 1134 154.26181030273438c378 0 756 -154.26181030273438 1134 -154.26181030273438c378 0 756 154.26181030273438 1134 154.26181030273438" transform="matrix(1,0,0,1,-852.2182006835938,0)" style="fill:none;stroke:rgb(0, 255, 255);;animation:none"></path></g>
<g transform="matrix(0.9659258262890683,0.25881904510252074,-0.25881904510252074,0.9659258262890683,197.22769270588435,216.3769432066897)" style="transform:none;;animation:none"><path stroke-width="2.5" stroke-opacity="0.7222222222222222" stroke="rgb(0, 255, 255)" fill="none" d="M-378 81.3045883178711c378 0 756 -162.6091766357422 1134 -162.6091766357422c378 0 756 162.6091766357422 1134 162.6091766357422c378 0 756 -162.6091766357422 1134 -162.6091766357422c378 0 756 162.6091766357422 1134 162.6091766357422" transform="matrix(1,0,0,1,-879.7090454101562,0)" style="fill:none;stroke:rgb(0, 255, 255);;animation:none"></path></g>
<g></g></g><!-- [ldio] generated by https://loading.io --></svg>