<svg xmlns="http://www.w3.org/2000/svg" viewBox="0 0 1525 865" preserveAspectRatio="xMidYMid" width="1525" height="865" xmlns:xlink="http://www.w3.org/1999/xlink" style="display:block;background:rgb(0, 0, 0);width:1525px;height:865px;;animation:none"><g><g transform="matrix(1,0,0,1,0,0)" style="transform:none;;animation:none"><path stroke-width="1.5" stroke-opacity="0" stroke="rgb(11, 32, 56)" fill="none" d="M0 865c254 0 509 0 763 0c254 0 509 0 763 0c254 0 509 0 763 0c254 0 509 0 763 0" transform="matrix(1,0,0,1,0,0)" style="fill:none;stroke:rgb(11, 32, 56);;animation:none"></path></g>
<g transform="matrix(0.9986295347545738,0.052335956242943835,-0.052335956242943835,0.9986295347545738,23.68028082471062,-39.31344041659787)" style="transform:none;;animation:none"><path stroke-width="1.5" stroke-opacity="0" stroke="rgb(11, 32, 56)" fill="none" d="M0 865c254 0 509 0 763 0c254 0 509 0 763 0c254 0 509 0 763 0c254 0 509 0 763 0" transform="matrix(1,0,0,1,-6.100000381469727,0)" style="fill:none;stroke:rgb(11, 32, 56);;animation:none"></path></g>
<g transform="matrix(0.9945218953682733,0.10452846326765347,-0.10452846326765347,0.9945218953682733,49.38561514495177,-77.33367298836396)" style="transform:none;;animation:none"><path stroke-width="1.5" stroke-opacity="0" stroke="rgb(11, 32, 56)" fill="none" d="M0 865c254 0 509 0 763 0c254 0 509 0 763 0c254 0 509 0 763 0c254 0 509 0 763 0" transform="matrix(1,0,0,1,-12.200000762939453,0)" style="fill:none;stroke:rgb(11, 32, 56);;animation:none"></path></g>
<g transform="matrix(0.9876883405951378,0.15643446504023087,-0.15643446504023087,0.9876883405951378,77.04554642610731,-113.95648690057317)" style="transform:none;;animation:none"><path stroke-width="1.5" stroke-opacity="0" stroke="rgb(11, 32, 56)" fill="none" d="M0 865c254 0 509 0 763 0c254 0 509 0 763 0c254 0 509 0 763 0c254 0 509 0 763 0" transform="matrix(1,0,0,1,-18.299999237060547,0)" style="fill:none;stroke:rgb(11, 32, 56);;animation:none"></path></g>
<g transform="matrix(0.9781476007338057,0.20791169081775934,-0.20791169081775934,0.9781476007338057,106.58426071915403,-149.0815015659125)" style="transform:none;;animation:none"><path stroke-width="1.5" stroke-opacity="0" stroke="rgb(11, 33, 57)" fill="none" d="M0 865c254 0 509 0 763 0c254 0 509 0 763 0c254 0 509 0 763 0c254 0 509 0 763 0" transform="matrix(1,0,0,1,-24.400001525878906,0)" style="fill:none;stroke:rgb(11, 33, 57);;animation:none"></path></g>
<g transform="matrix(0.9659258262890683,0.25881904510252074,-0.25881904510252074,0.9659258262890683,137.92079446142566,-182.61244176069408)" style="transform:none;;animation:none"><path stroke-width="1.5" stroke-opacity="0" stroke="rgb(12, 33, 57)" fill="none" d="M0 865c254 0 509 0 763 0c254 0 509 0 763 0c254 0 509 0 763 0c254 0 509 0 763 0" transform="matrix(1,0,0,1,-30.5,0)" style="fill:none;stroke:rgb(12, 33, 57);;animation:none"></path></g>
<g transform="matrix(0.9510565162951535,0.3090169943749474,-0.3090169943749474,0.9510565162951535,170.9692563921102,-214.45740150855124)" style="transform:none;;animation:none"><path stroke-width="1.5" stroke-opacity="0" stroke="rgb(12, 34, 58)" fill="none" d="M0 865c254 0 509 0 763 0c254 0 509 0 763 0c254 0 509 0 763 0c254 0 509 0 763 0" transform="matrix(1,0,0,1,-36.599998474121094,0)" style="fill:none;stroke:rgb(12, 34, 58);;animation:none"></path></g>
<g transform="matrix(0.9335804264972017,0.35836794954530027,-0.35836794954530027,0.9335804264972017,205.63906297422602,-244.52909598833116)" style="transform:none;;animation:none"><path stroke-width="1.5" stroke-opacity="0" stroke="rgb(13, 34, 59)" fill="none" d="M0 865c254 0 509 0 763 0c254 0 509 0 763 0c254 0 509 0 763 0c254 0 509 0 763 0" transform="matrix(1,0,0,1,-42.70000076293945,0)" style="fill:none;stroke:rgb(13, 34, 59);;animation:none"></path></g>
<g transform="matrix(0.9135454576426009,0.4067366430758002,-0.4067366430758002,0.9135454576426009,241.83518667780038,-272.74510077572256)" style="transform:none;;animation:none"><path stroke-width="1.5" stroke-opacity="0" stroke="rgb(13, 35, 59)" fill="none" d="M0 865c254 0 509 0 763 0c254 0 509 0 763 0c254 0 509 0 763 0c254 0 509 0 763 0" transform="matrix(1,0,0,1,-48.80000305175781,0)" style="fill:none;stroke:rgb(13, 35, 59);;animation:none"></path></g>
<g transform="matrix(0.8910065241883679,0.45399049973954675,-0.45399049973954675,0.8910065241883679,279.4584164437235,-299.0280777628735)" style="transform:none;;animation:none"><path stroke-width="1.5" stroke-opacity="0" stroke="rgb(14, 36, 60)" fill="none" d="M0 865c254 0 509 0 763 0c254 0 509 0 763 0c254 0 509 0 763 0c254 0 509 0 763 0" transform="matrix(1,0,0,1,-54.89999771118164,0)" style="fill:none;stroke:rgb(14, 36, 60);;animation:none"></path></g>
<g transform="matrix(0.8660254037844387,0.49999999999999994,-0.49999999999999994,0.8660254037844387,318.40562961436547,-323.30598713676966)" style="transform:none;;animation:none"><path stroke-width="1.5" stroke-opacity="0" stroke="rgb(14, 37, 62)" fill="none" d="M0 865c254 0 509 0 763 0c254 0 509 0 763 0c254 0 509 0 763 0c254 0 509 0 763 0" transform="matrix(1,0,0,1,-61,0)" style="fill:none;stroke:rgb(14, 37, 62);;animation:none"></path></g>
<g transform="matrix(0.838670567945424,0.5446390350150271,-0.5446390350150271,0.838670567945424,358.5700745856134,-345.5122848353541)" style="transform:none;;animation:none"><path stroke-width="1.5" stroke-opacity="0" stroke="rgb(15, 39, 63)" fill="none" d="M0 865c254 0 509 0 763 0c254 0 509 0 763 0c254 0 509 0 763 0c254 0 509 0 763 0" transform="matrix(1,0,0,1,-67.0999984741211,0)" style="fill:none;stroke:rgb(15, 39, 63);;animation:none"></path></g>
<g transform="matrix(0.8090169943749475,0.5877852522924731,-0.5877852522924731,0.8090169943749475,399.8416634055972,-365.5861049401756)" style="transform:none;;animation:none"><path stroke-width="1.5" stroke-opacity="0" stroke="rgb(16, 40, 64)" fill="none" d="M0 865c254 0 509 0 763 0c254 0 509 0 763 0c254 0 509 0 763 0c254 0 509 0 763 0" transform="matrix(1,0,0,1,-73.19999694824219,0)" style="fill:none;stroke:rgb(16, 40, 64);;animation:none"></path></g>
<g transform="matrix(0.7771459614569709,0.6293203910498374,-0.6293203910498374,0.7771459614569709,442.10727351811437,-383.4724265056409)" style="transform:none;;animation:none"><path stroke-width="1.5" stroke-opacity="0" stroke="rgb(17, 41, 66)" fill="none" d="M0 865c254 0 509 0 763 0c254 0 509 0 763 0c254 0 509 0 763 0c254 0 509 0 763 0" transform="matrix(1,0,0,1,-79.30000305175781,0)" style="fill:none;stroke:rgb(17, 41, 66);;animation:none"></path></g>
<g transform="matrix(0.7431448254773942,0.6691306063588582,-0.6691306063588582,0.7431448254773942,485.2510578236931,-399.12222436760237)" style="transform:none;;animation:none"><path stroke-width="1.5" stroke-opacity="0" stroke="rgb(18, 43, 68)" fill="none" d="M0 865c254 0 509 0 763 0c254 0 509 0 763 0c254 0 509 0 763 0c254 0 509 0 763 0" transform="matrix(1,0,0,1,-85.4000015258789,0)" style="fill:none;stroke:rgb(18, 43, 68);;animation:none"></path></g>
<g transform="matrix(0.7071067811865476,0.7071067811865475,-0.7071067811865475,0.7071067811865476,529.1547622084393,-412.4926035179243)" style="transform:none;;animation:none"><path stroke-width="1.5" stroke-opacity="0" stroke="rgb(19, 45, 69)" fill="none" d="M0 865c254 0 509 0 763 0c254 0 509 0 763 0c254 0 509 0 763 0c254 0 509 0 763 0" transform="matrix(1,0,0,1,-91.5,0)" style="fill:none;stroke:rgb(19, 45, 69);;animation:none"></path></g>
<g transform="matrix(0.6691306063588582,0.7431448254773942,-0.7431448254773942,0.6691306063588582,573.6980496703436,-423.5469166767193)" style="transform:none;;animation:none"><path stroke-width="1.5" stroke-opacity="0" stroke="rgb(20, 47, 72)" fill="none" d="M0 865c254 0 509 0 763 0c254 0 509 0 763 0c254 0 509 0 763 0c254 0 509 0 763 0" transform="matrix(1,0,0,1,-97.60000610351562,0)" style="fill:none;stroke:rgb(20, 47, 72);;animation:none"></path></g>
<g transform="matrix(0.6293203910498374,0.7771459614569709,-0.7771459614569709,0.6293203910498374,618.7588301546389,-432.254864739995)" style="transform:none;;animation:none"><path stroke-width="1.5" stroke-opacity="0" stroke="rgb(22, 49, 74)" fill="none" d="M0 865c254 0 509 0 763 0c254 0 509 0 763 0c254 0 509 0 763 0c254 0 509 0 763 0" transform="matrix(1,0,0,1,-103.70000457763672,0)" style="fill:none;stroke:rgb(22, 49, 74);;animation:none"></path></g>
<g transform="matrix(0.5877852522924731,0.8090169943749475,-0.8090169943749475,0.5877852522924731,664.213595194154,-438.5925798273921)" style="transform:none;;animation:none"><path stroke-width="1.5" stroke-opacity="0" stroke="rgb(23, 52, 76)" fill="none" d="M0 865c254 0 509 0 763 0c254 0 509 0 763 0c254 0 509 0 763 0c254 0 509 0 763 0" transform="matrix(1,0,0,1,-109.79999542236328,0)" style="fill:none;stroke:rgb(23, 52, 76);;animation:none"></path></g>
<g transform="matrix(0.5446390350150271,0.838670567945424,-0.838670567945424,0.5446390350150271,709.9377564374378,-442.542690702385)" style="transform:none;;animation:none"><path stroke-width="1.5" stroke-opacity="0" stroke="rgb(25, 54, 79)" fill="none" d="M0 865c254 0 509 0 763 0c254 0 509 0 763 0c254 0 509 0 763 0c254 0 509 0 763 0" transform="matrix(1,0,0,1,-115.89999389648438,0)" style="fill:none;stroke:rgb(25, 54, 79);;animation:none"></path></g>
<g transform="matrix(0.5000000000000001,0.8660254037844386,-0.8660254037844386,0.5000000000000001,755.8059871367697,-444.09437038563453)" style="transform:none;;animation:none"><path stroke-width="1.5" stroke-opacity="0" stroke="rgb(26, 57, 82)" fill="none" d="M0 865c254 0 509 0 763 0c254 0 509 0 763 0c254 0 509 0 763 0c254 0 509 0 763 0" transform="matrix(1,0,0,1,-122,0)" style="fill:none;stroke:rgb(26, 57, 82);;animation:none"></path></g>
<g transform="matrix(0.45399049973954686,0.8910065241883679,-0.8910065241883679,0.45399049973954686,801.6925656600646,-443.24336583098454)" style="transform:none;;animation:none"><path stroke-width="1.5" stroke-opacity="0" stroke="rgb(28, 60, 85)" fill="none" d="M0 865c254 0 509 0 763 0c254 0 509 0 763 0c254 0 509 0 763 0c254 0 509 0 763 0" transform="matrix(1,0,0,1,-128.09999084472656,0)" style="fill:none;stroke:rgb(28, 60, 85);;animation:none"></path></g>
<g transform="matrix(0.4067366430758002,0.9135454576426009,-0.9135454576426009,0.4067366430758002,847.4717200851272,-439.99200958276674)" style="transform:none;;animation:none"><path stroke-width="1.5" stroke-opacity="0" stroke="rgb(30, 63, 88)" fill="none" d="M0 865c254 0 509 0 763 0c254 0 509 0 763 0c254 0 509 0 763 0c254 0 509 0 763 0" transform="matrix(1,0,0,1,-134.1999969482422,0)" style="fill:none;stroke:rgb(30, 63, 88);;animation:none"></path></g>
<g transform="matrix(0.3583679495453004,0.9335804264972017,-0.9335804264972017,0.3583679495453004,893.0179729317482,-434.34921338245874)" style="transform:none;;animation:none"><path stroke-width="1.5" stroke-opacity="0" stroke="rgb(32, 66, 92)" fill="none" d="M0 865c254 0 509 0 763 0c254 0 509 0 763 0c254 0 509 0 763 0c254 0 509 0 763 0" transform="matrix(1,0,0,1,-140.3000030517578,0)" style="fill:none;stroke:rgb(32, 66, 92);;animation:none"></path></g>
<g transform="matrix(0.30901699437494745,0.9510565162951535,-0.9510565162951535,0.30901699437494745,938.2064850867564,-426.33044374221936)" style="transform:none;;animation:none"><path stroke-width="1.5" stroke-opacity="0" stroke="rgb(34, 70, 95)" fill="none" d="M0 865c254 0 509 0 763 0c254 0 509 0 763 0c254 0 509 0 763 0c254 0 509 0 763 0" transform="matrix(1,0,0,1,-146.39999389648438,0)" style="fill:none;stroke:rgb(34, 70, 95);;animation:none"></path></g>
<g transform="matrix(0.25881904510252074,0.9659258262890683,-0.9659258262890683,0.25881904510252074,982.91339797935,-415.95767955225483)" style="transform:none;;animation:none"><path stroke-width="1.5" stroke-opacity="0" stroke="rgb(36, 73, 99)" fill="none" d="M0 865c254 0 509 0 763 0c254 0 509 0 763 0c254 0 509 0 763 0c254 0 509 0 763 0" transform="matrix(1,0,0,1,-152.5,0)" style="fill:none;stroke:rgb(36, 73, 99);;animation:none"></path></g>
<g transform="matrix(0.20791169081775945,0.9781476007338056,-0.9781476007338056,0.20791169081775945,1027.0161730688292,-403.25935183820775)" style="transform:none;;animation:none"><path stroke-width="1.5" stroke-opacity="0" stroke="rgb(39, 77, 103)" fill="none" d="M0 865c254 0 509 0 763 0c254 0 509 0 763 0c254 0 509 0 763 0c254 0 509 0 763 0" transform="matrix(1,0,0,1,-158.60000610351562,0)" style="fill:none;stroke:rgb(39, 77, 103);;animation:none"></path></g>
<g transform="matrix(0.15643446504023092,0.9876883405951378,-0.9876883405951378,0.15643446504023092,1070.393927714221,-388.2702658336924)" style="transform:none;;animation:none"><path stroke-width="1.5" stroke-opacity="0" stroke="rgb(41, 81, 107)" fill="none" d="M0 865c254 0 509 0 763 0c254 0 509 0 763 0c254 0 509 0 763 0c254 0 509 0 763 0" transform="matrix(1,0,0,1,-164.6999969482422,0)" style="fill:none;stroke:rgb(41, 81, 107);;animation:none"></path></g>
<g transform="matrix(0.10452846326765346,0.9945218953682733,-0.9945218953682733,0.10452846326765346,1112.9277665051925,-371.03150558156847)" style="transform:none;;animation:none"><path stroke-width="1.5" stroke-opacity="0" stroke="rgb(44, 85, 111)" fill="none" d="M0 865c254 0 509 0 763 0c254 0 509 0 763 0c254 0 509 0 763 0c254 0 509 0 763 0" transform="matrix(1,0,0,1,-170.8000030517578,0)" style="fill:none;stroke:rgb(44, 85, 111);;animation:none"></path></g>
<g transform="matrix(0.052335956242943966,0.9986295347545738,-0.9986295347545738,0.052335956242943966,1154.5011071461083,-351.59032132543587)" style="transform:none;;animation:none"><path stroke-width="1.5" stroke-opacity="0" stroke="rgb(46, 89, 116)" fill="none" d="M0 865c254 0 509 0 763 0c254 0 509 0 763 0c254 0 509 0 763 0c254 0 509 0 763 0" transform="matrix(1,0,0,1,-176.89999389648438,0)" style="fill:none;stroke:rgb(46, 89, 116);;animation:none"></path></g>
<g transform="matrix(6.123233995736766e-17,1,-1,6.123233995736766e-17,1195,-330)" style="transform:none;;animation:none"><path stroke-width="1.5" stroke-opacity="0" stroke="rgb(49, 94, 120)" fill="none" d="M0 865c254 0 509 0 763 0c254 0 509 0 763 0c254 0 509 0 763 0c254 0 509 0 763 0" transform="matrix(1,0,0,1,-183,0)" style="fill:none;stroke:rgb(49, 94, 120);;animation:none"></path></g>
<g transform="matrix(-0.05233595624294384,0.9986295347545738,-0.9986295347545738,-0.05233595624294384,1234.3134404165978,-306.3197191752894)" style="transform:none;;animation:none"><path stroke-width="1.5" stroke-opacity="0" stroke="rgb(51, 98, 124)" fill="none" d="M0 865c254 0 509 0 763 0c254 0 509 0 763 0c254 0 509 0 763 0c254 0 509 0 763 0" transform="matrix(1,0,0,1,-189.09999084472656,0)" style="fill:none;stroke:rgb(51, 98, 124);;animation:none"></path></g>
<g transform="matrix(-0.10452846326765355,0.9945218953682733,-0.9945218953682733,-0.10452846326765355,1272.333672988364,-280.61438485504823)" style="transform:none;;animation:none"><path stroke-width="1.5" stroke-opacity="0" stroke="rgb(54, 102, 129)" fill="none" d="M0 865c254 0 509 0 763 0c254 0 509 0 763 0c254 0 509 0 763 0c254 0 509 0 763 0" transform="matrix(1,0,0,1,-195.20001220703125,0)" style="fill:none;stroke:rgb(54, 102, 129);;animation:none"></path></g>
<g transform="matrix(-0.1564344650402308,0.9876883405951378,-0.9876883405951378,-0.1564344650402308,1308.956486900573,-252.9544535738927)" style="transform:none;;animation:none"><path stroke-width="1.5" stroke-opacity="0" stroke="rgb(57, 106, 133)" fill="none" d="M0 865c254 0 509 0 763 0c254 0 509 0 763 0c254 0 509 0 763 0c254 0 509 0 763 0" transform="matrix(1,0,0,1,-201.3000030517578,0)" style="fill:none;stroke:rgb(57, 106, 133);;animation:none"></path></g>
<g transform="matrix(-0.20791169081775934,0.9781476007338057,-0.9781476007338057,-0.20791169081775934,1344.0815015659125,-223.41573928084597)" style="transform:none;;animation:none"><path stroke-width="1.5" stroke-opacity="0" stroke="rgb(59, 111, 138)" fill="none" d="M0 865c254 0 509 0 763 0c254 0 509 0 763 0c254 0 509 0 763 0c254 0 509 0 763 0" transform="matrix(1,0,0,1,-207.40000915527344,0)" style="fill:none;stroke:rgb(59, 111, 138);;animation:none"></path></g>
<g transform="matrix(-0.25881904510252085,0.9659258262890683,-0.9659258262890683,-0.25881904510252085,1377.6124417606943,-192.07920553857434)" style="transform:none;;animation:none"><path stroke-width="1.5" stroke-opacity="0" stroke="rgb(62, 115, 142)" fill="none" d="M0 865c254 0 509 0 763 0c254 0 509 0 763 0c254 0 509 0 763 0c254 0 509 0 763 0" transform="matrix(1,0,0,1,-213.5,0)" style="fill:none;stroke:rgb(62, 115, 142);;animation:none"></path></g>
<g transform="matrix(-0.30901699437494734,0.9510565162951536,-0.9510565162951536,-0.30901699437494734,1409.4574015085514,-159.03074360788992)" style="transform:none;;animation:none"><path stroke-width="1.5" stroke-opacity="0" stroke="rgb(64, 119, 146)" fill="none" d="M0 865c254 0 509 0 763 0c254 0 509 0 763 0c254 0 509 0 763 0c254 0 509 0 763 0" transform="matrix(1,0,0,1,-219.59999084472656,0)" style="fill:none;stroke:rgb(64, 119, 146);;animation:none"></path></g>
<g transform="matrix(-0.35836794954530027,0.9335804264972017,-0.9335804264972017,-0.35836794954530027,1439.5290959883312,-124.36093702577398)" style="transform:none;;animation:none"><path stroke-width="1.5" stroke-opacity="0" stroke="rgb(67, 123, 150)" fill="none" d="M0 865c254 0 509 0 763 0c254 0 509 0 763 0c254 0 509 0 763 0c254 0 509 0 763 0" transform="matrix(1,0,0,1,-225.6999969482422,0)" style="fill:none;stroke:rgb(67, 123, 150);;animation:none"></path></g>
<g transform="matrix(-0.40673664307580026,0.9135454576426009,-0.9135454576426009,-0.40673664307580026,1467.7451007757227,-88.1648133221995)" style="transform:none;;animation:none"><path stroke-width="1.5" stroke-opacity="0" stroke="rgb(69, 126, 154)" fill="none" d="M0 865c254 0 509 0 763 0c254 0 509 0 763 0c254 0 509 0 763 0c254 0 509 0 763 0" transform="matrix(1,0,0,1,-231.79998779296875,0)" style="fill:none;stroke:rgb(69, 126, 154);;animation:none"></path></g>
<g transform="matrix(-0.45399049973954675,0.8910065241883679,-0.8910065241883679,-0.45399049973954675,1494.0280777628736,-50.54158355627652)" style="transform:none;;animation:none"><path stroke-width="1.5" stroke-opacity="0" stroke="rgb(71, 130, 158)" fill="none" d="M0 865c254 0 509 0 763 0c254 0 509 0 763 0c254 0 509 0 763 0c254 0 509 0 763 0" transform="matrix(1,0,0,1,-237.90000915527344,0)" style="fill:none;stroke:rgb(71, 130, 158);;animation:none"></path></g>
<g transform="matrix(-0.49999999999999983,0.8660254037844387,-0.8660254037844387,-0.49999999999999983,1518.3059871367695,-11.59437038563459)" style="transform:none;;animation:none"><path stroke-width="1.5" stroke-opacity="0" stroke="rgb(73, 133, 161)" fill="none" d="M0 865c254 0 509 0 763 0c254 0 509 0 763 0c254 0 509 0 763 0c254 0 509 0 763 0" transform="matrix(1,0,0,1,-244,0)" style="fill:none;stroke:rgb(73, 133, 161);;animation:none"></path></g>
<g transform="matrix(-0.5446390350150272,0.838670567945424,-0.838670567945424,-0.5446390350150272,1540.5122848353542,28.57007458561344)" style="transform:none;;animation:none"><path stroke-width="1.5" stroke-opacity="0" stroke="rgb(75, 137, 165)" fill="none" d="M0 865c254 0 509 0 763 0c254 0 509 0 763 0c254 0 509 0 763 0c254 0 509 0 763 0" transform="matrix(1,0,0,1,-250.10000610351562,0)" style="fill:none;stroke:rgb(75, 137, 165);;animation:none"></path></g>
<g transform="matrix(-0.587785252292473,0.8090169943749475,-0.8090169943749475,-0.587785252292473,1560.5861049401756,69.84166340559716)" style="transform:none;;animation:none"><path stroke-width="1.5" stroke-opacity="0" stroke="rgb(77, 140, 168)" fill="none" d="M0 865c254 0 509 0 763 0c254 0 509 0 763 0c254 0 509 0 763 0c254 0 509 0 763 0" transform="matrix(1,0,0,1,-256.1999816894531,0)" style="fill:none;stroke:rgb(77, 140, 168);;animation:none"></path></g>
<g transform="matrix(-0.6293203910498373,0.777145961456971,-0.777145961456971,-0.6293203910498373,1578.472426505641,112.1072735181142)" style="transform:none;;animation:none"><path stroke-width="1.5" stroke-opacity="0" stroke="rgb(79, 143, 171)" fill="none" d="M0 865c254 0 509 0 763 0c254 0 509 0 763 0c254 0 509 0 763 0c254 0 509 0 763 0" transform="matrix(1,0,0,1,-262.3000183105469,0)" style="fill:none;stroke:rgb(79, 143, 171);;animation:none"></path></g>
<g transform="matrix(-0.6691306063588582,0.7431448254773942,-0.7431448254773942,-0.6691306063588582,1594.1222243676025,155.2510578236931)" style="transform:none;;animation:none"><path stroke-width="1.5" stroke-opacity="0" stroke="rgb(80, 145, 173)" fill="none" d="M0 865c254 0 509 0 763 0c254 0 509 0 763 0c254 0 509 0 763 0c254 0 509 0 763 0" transform="matrix(1,0,0,1,-268.3999938964844,0)" style="fill:none;stroke:rgb(80, 145, 173);;animation:none"></path></g>
<g transform="matrix(-0.7071067811865475,0.7071067811865476,-0.7071067811865476,-0.7071067811865475,1607.4926035179242,199.15476220843925)" style="transform:none;;animation:none"><path stroke-width="1.5" stroke-opacity="0" stroke="rgb(82, 148, 176)" fill="none" d="M0 865c254 0 509 0 763 0c254 0 509 0 763 0c254 0 509 0 763 0c254 0 509 0 763 0" transform="matrix(1,0,0,1,-274.5,0)" style="fill:none;stroke:rgb(82, 148, 176);;animation:none"></path></g>
<g transform="matrix(-0.743144825477394,0.6691306063588585,-0.6691306063588585,-0.743144825477394,1618.5469166767193,243.69804967034335)" style="transform:none;;animation:none"><path stroke-width="1.5" stroke-opacity="0" stroke="rgb(83, 150, 178)" fill="none" d="M0 865c254 0 509 0 763 0c254 0 509 0 763 0c254 0 509 0 763 0c254 0 509 0 763 0" transform="matrix(1,0,0,1,-280.6000061035156,0)" style="fill:none;stroke:rgb(83, 150, 178);;animation:none"></path></g>
<g transform="matrix(-0.7771459614569709,0.6293203910498374,-0.6293203910498374,-0.7771459614569709,1627.254864739995,288.75883015463893)" style="transform:none;;animation:none"><path stroke-width="1.5" stroke-opacity="0" stroke="rgb(84, 152, 181)" fill="none" d="M0 865c254 0 509 0 763 0c254 0 509 0 763 0c254 0 509 0 763 0c254 0 509 0 763 0" transform="matrix(1,0,0,1,-286.6999816894531,0)" style="fill:none;stroke:rgb(84, 152, 181);;animation:none"></path></g>
<g transform="matrix(-0.8090169943749473,0.5877852522924732,-0.5877852522924732,-0.8090169943749473,1633.592579827392,334.21359519415387)" style="transform:none;;animation:none"><path stroke-width="1.5" stroke-opacity="0" stroke="rgb(86, 154, 183)" fill="none" d="M0 865c254 0 509 0 763 0c254 0 509 0 763 0c254 0 509 0 763 0c254 0 509 0 763 0" transform="matrix(1,0,0,1,-292.79998779296875,0)" style="fill:none;stroke:rgb(86, 154, 183);;animation:none"></path></g>
<g transform="matrix(-0.8386705679454239,0.5446390350150273,-0.5446390350150273,-0.8386705679454239,1637.542690702385,379.93775643743754)" style="transform:none;;animation:none"><path stroke-width="1.5" stroke-opacity="0" stroke="rgb(87, 156, 184)" fill="none" d="M0 865c254 0 509 0 763 0c254 0 509 0 763 0c254 0 509 0 763 0c254 0 509 0 763 0" transform="matrix(1,0,0,1,-298.8999938964844,0)" style="fill:none;stroke:rgb(87, 156, 184);;animation:none"></path></g>
<g transform="matrix(-0.8660254037844387,0.49999999999999994,-0.49999999999999994,-0.8660254037844387,1639.0943703856346,425.8059871367698)" style="transform:none;;animation:none"><path stroke-width="1.5" stroke-opacity="0" stroke="rgb(88, 157, 186)" fill="none" d="M0 865c254 0 509 0 763 0c254 0 509 0 763 0c254 0 509 0 763 0c254 0 509 0 763 0" transform="matrix(1,0,0,1,-305,0)" style="fill:none;stroke:rgb(88, 157, 186);;animation:none"></path></g>
<g transform="matrix(-0.8910065241883678,0.45399049973954686,-0.45399049973954686,-0.8910065241883678,1638.2433658309844,471.6925656600646)" style="transform:none;;animation:none"><path stroke-width="1.5" stroke-opacity="0" stroke="rgb(89, 159, 188)" fill="none" d="M0 865c254 0 509 0 763 0c254 0 509 0 763 0c254 0 509 0 763 0c254 0 509 0 763 0" transform="matrix(1,0,0,1,-311.1000061035156,0)" style="fill:none;stroke:rgb(89, 159, 188);;animation:none"></path></g>
<g transform="matrix(-0.9135454576426008,0.40673664307580043,-0.40673664307580043,-0.9135454576426008,1634.9920095827667,517.471720085127)" style="transform:none;;animation:none"><path stroke-width="1.5" stroke-opacity="0" stroke="rgb(89, 160, 189)" fill="none" d="M0 865c254 0 509 0 763 0c254 0 509 0 763 0c254 0 509 0 763 0c254 0 509 0 763 0" transform="matrix(1,0,0,1,-317.20001220703125,0)" style="fill:none;stroke:rgb(89, 160, 189);;animation:none"></path></g>
<g transform="matrix(-0.9335804264972017,0.3583679495453002,-0.3583679495453002,-0.9335804264972017,1629.3492133824586,563.0179729317483)" style="transform:none;;animation:none"><path stroke-width="1.5" stroke-opacity="0" stroke="rgb(90, 161, 190)" fill="none" d="M0 865c254 0 509 0 763 0c254 0 509 0 763 0c254 0 509 0 763 0c254 0 509 0 763 0" transform="matrix(1,0,0,1,-323.29998779296875,0)" style="fill:none;stroke:rgb(90, 161, 190);;animation:none"></path></g>
<g transform="matrix(-0.9510565162951535,0.3090169943749475,-0.3090169943749475,-0.9510565162951535,1621.3304437422194,608.2064850867564)" style="transform:none;;animation:none"><path stroke-width="1.5" stroke-opacity="0" stroke="rgb(91, 162, 191)" fill="none" d="M0 865c254 0 509 0 763 0c254 0 509 0 763 0c254 0 509 0 763 0c254 0 509 0 763 0" transform="matrix(1,0,0,1,-329.3999938964844,0)" style="fill:none;stroke:rgb(91, 162, 191);;animation:none"></path></g>
<g transform="matrix(-0.9659258262890682,0.258819045102521,-0.258819045102521,-0.9659258262890682,1610.9576795522548,652.9133979793497)" style="transform:none;;animation:none"><path stroke-width="1.5" stroke-opacity="0" stroke="rgb(91, 163, 192)" fill="none" d="M0 865c254 0 509 0 763 0c254 0 509 0 763 0c254 0 509 0 763 0c254 0 509 0 763 0" transform="matrix(1,0,0,1,-335.5,0)" style="fill:none;stroke:rgb(91, 163, 192);;animation:none"></path></g>
<g transform="matrix(-0.9781476007338057,0.20791169081775931,-0.20791169081775931,-0.9781476007338057,1598.2593518382077,697.0161730688294)" style="transform:none;;animation:none"><path stroke-width="1.5" stroke-opacity="0" stroke="rgb(92, 164, 193)" fill="none" d="M0 865c254 0 509 0 763 0c254 0 509 0 763 0c254 0 509 0 763 0c254 0 509 0 763 0" transform="matrix(1,0,0,1,-341.6000061035156,0)" style="fill:none;stroke:rgb(92, 164, 193);;animation:none"></path></g>
<g transform="matrix(-0.9876883405951377,0.15643446504023098,-0.15643446504023098,-0.9876883405951377,1583.2702658336925,740.3939277142209)" style="transform:none;;animation:none"><path stroke-width="1.5" stroke-opacity="0" stroke="rgb(92, 164, 193)" fill="none" d="M0 865c254 0 509 0 763 0c254 0 509 0 763 0c254 0 509 0 763 0c254 0 509 0 763 0" transform="matrix(1,0,0,1,-347.70001220703125,0)" style="fill:none;stroke:rgb(92, 164, 193);;animation:none"></path></g>
<g transform="matrix(-0.9945218953682733,0.10452846326765373,-0.10452846326765373,-0.9945218953682733,1566.0315055815686,782.9277665051923)" style="transform:none;;animation:none"><path stroke-width="1.5" stroke-opacity="0" stroke="rgb(92, 165, 194)" fill="none" d="M0 865c254 0 509 0 763 0c254 0 509 0 763 0c254 0 509 0 763 0c254 0 509 0 763 0" transform="matrix(1,0,0,1,-353.79998779296875,0)" style="fill:none;stroke:rgb(92, 165, 194);;animation:none"></path></g>
<g transform="matrix(-0.9986295347545738,0.05233595624294381,-0.05233595624294381,-0.9986295347545738,1546.5903213254358,824.5011071461086)" style="transform:none;;animation:none"><path stroke-width="1.5" stroke-opacity="0" stroke="rgb(93, 165, 194)" fill="none" d="M0 865c254 0 509 0 763 0c254 0 509 0 763 0c254 0 509 0 763 0c254 0 509 0 763 0" transform="matrix(1,0,0,1,-359.8999938964844,0)" style="fill:none;stroke:rgb(93, 165, 194);;animation:none"></path></g>
<g transform="matrix(-1,1.2246467991473532e-16,-1.2246467991473532e-16,-1,1525,864.9999999999999)" style="transform:none;;animation:none"><path stroke-width="1.5" stroke-opacity="0" stroke="rgb(93, 166, 195)" fill="none" d="M0 865c254 0 509 0 763 0c254 0 509 0 763 0c254 0 509 0 763 0c254 0 509 0 763 0" transform="matrix(1,0,0,1,-366,0)" style="fill:none;stroke:rgb(93, 166, 195);;animation:none"></path></g>
<g transform="matrix(-0.9986295347545738,-0.052335956242943564,0.052335956242943564,-0.9986295347545738,1501.3197191752895,904.3134404165976)" style="transform:none;;animation:none"><path stroke-width="1.5" stroke-opacity="0.01694915254237288" stroke="rgb(93, 166, 195)" fill="none" d="M0 865c254 0 509 0 763 0c254 0 509 0 763 0c254 0 509 0 763 0c254 0 509 0 763 0" transform="matrix(1,0,0,1,-372.1000061035156,0)" style="fill:none;stroke:rgb(93, 166, 195);;animation:none"></path></g>
<g transform="matrix(-0.9945218953682733,-0.1045284632676535,0.1045284632676535,-0.9945218953682733,1475.6143848550482,942.333672988364)" style="transform:none;;animation:none"><path stroke-width="1.5" stroke-opacity="0.03389830508474576" stroke="rgb(93, 166, 195)" fill="none" d="M0 865c254 0 509 0 763 0c254 0 509 0 763 0c254 0 509 0 763 0c254 0 509 0 763 0" transform="matrix(1,0,0,1,-378.1999816894531,0)" style="fill:none;stroke:rgb(93, 166, 195);;animation:none"></path></g>
<g transform="matrix(-0.9876883405951378,-0.15643446504023073,0.15643446504023073,-0.9876883405951378,1447.9544535738928,978.956486900573)" style="transform:none;;animation:none"><path stroke-width="1.5" stroke-opacity="0.05084745762711865" stroke="rgb(93, 166, 195)" fill="none" d="M0 865c254 0 509 0 763 0c254 0 509 0 763 0c254 0 509 0 763 0c254 0 509 0 763 0" transform="matrix(1,0,0,1,-384.3000183105469,0)" style="fill:none;stroke:rgb(93, 166, 195);;animation:none"></path></g>
<g transform="matrix(-0.9781476007338056,-0.2079116908177595,0.2079116908177595,-0.9781476007338056,1418.4157392808456,1014.0815015659125)" style="transform:none;;animation:none"><path stroke-width="1.5" stroke-opacity="0.06779661016949153" stroke="rgb(93, 166, 195)" fill="none" d="M0 865c254 0 509 0 763 0c254 0 509 0 763 0c254 0 509 0 763 0c254 0 509 0 763 0" transform="matrix(1,0,0,1,-390.4000244140625,0)" style="fill:none;stroke:rgb(93, 166, 195);;animation:none"></path></g>
<g transform="matrix(-0.9659258262890683,-0.2588190451025208,0.2588190451025208,-0.9659258262890683,1387.0792055385743,1047.612441760694)" style="transform:none;;animation:none"><path stroke-width="1.5" stroke-opacity="0.0847457627118644" stroke="rgb(93, 166, 195)" fill="none" d="M0 865c254 0 509 0 763 0c254 0 509 0 763 0c254 0 509 0 763 0c254 0 509 0 763 0" transform="matrix(1,0,0,1,-396.5,0)" style="fill:none;stroke:rgb(93, 166, 195);;animation:none"></path></g>
<g transform="matrix(-0.9510565162951536,-0.3090169943749473,0.3090169943749473,-0.9510565162951536,1354.03074360789,1079.4574015085514)" style="transform:none;;animation:none"><path stroke-width="1.5" stroke-opacity="0.1016949152542373" stroke="rgb(93, 166, 195)" fill="none" d="M0 865c254 0 509 0 763 0c254 0 509 0 763 0c254 0 509 0 763 0c254 0 509 0 763 0" transform="matrix(1,0,0,1,-402.6000061035156,0)" style="fill:none;stroke:rgb(93, 166, 195);;animation:none"></path></g>
<g transform="matrix(-0.9335804264972016,-0.35836794954530043,0.35836794954530043,-0.9335804264972016,1319.3609370257736,1109.5290959883314)" style="transform:none;;animation:none"><path stroke-width="1.5" stroke-opacity="0.11864406779661017" stroke="rgb(93, 166, 195)" fill="none" d="M0 865c254 0 509 0 763 0c254 0 509 0 763 0c254 0 509 0 763 0c254 0 509 0 763 0" transform="matrix(1,0,0,1,-408.70001220703125,0)" style="fill:none;stroke:rgb(93, 166, 195);;animation:none"></path></g>
<g transform="matrix(-0.9135454576426009,-0.4067366430758002,0.4067366430758002,-0.9135454576426009,1283.1648133221997,1137.7451007757227)" style="transform:none;;animation:none"><path stroke-width="1.5" stroke-opacity="0.13559322033898305" stroke="rgb(94, 166, 195)" fill="none" d="M0 865c254 0 509 0 763 0c254 0 509 0 763 0c254 0 509 0 763 0c254 0 509 0 763 0" transform="matrix(1,0,0,1,-414.8000183105469,0)" style="fill:none;stroke:rgb(94, 166, 195);;animation:none"></path></g>
<g transform="matrix(-0.8910065241883679,-0.4539904997395467,0.4539904997395467,-0.8910065241883679,1245.5415835562767,1164.0280777628736)" style="transform:none;;animation:none"><path stroke-width="1.5" stroke-opacity="0.15254237288135594" stroke="rgb(94, 167, 196)" fill="none" d="M0 865c254 0 509 0 763 0c254 0 509 0 763 0c254 0 509 0 763 0c254 0 509 0 763 0" transform="matrix(1,0,0,1,-420.8999938964844,0)" style="fill:none;stroke:rgb(94, 167, 196);;animation:none"></path></g>
<g transform="matrix(-0.8660254037844386,-0.5000000000000001,0.5000000000000001,-0.8660254037844386,1206.5943703856344,1188.3059871367698)" style="transform:none;;animation:none"><path stroke-width="1.5" stroke-opacity="0.1694915254237288" stroke="rgb(94, 167, 196)" fill="none" d="M0 865c254 0 509 0 763 0c254 0 509 0 763 0c254 0 509 0 763 0c254 0 509 0 763 0" transform="matrix(1,0,0,1,-427,0)" style="fill:none;stroke:rgb(94, 167, 196);;animation:none"></path></g>
<g transform="matrix(-0.838670567945424,-0.5446390350150271,0.5446390350150271,-0.838670567945424,1166.4299254143866,1210.512284835354)" style="transform:none;;animation:none"><path stroke-width="1.5" stroke-opacity="0.1864406779661017" stroke="rgb(94, 167, 196)" fill="none" d="M0 865c254 0 509 0 763 0c254 0 509 0 763 0c254 0 509 0 763 0c254 0 509 0 763 0" transform="matrix(1,0,0,1,-433.1000061035156,0)" style="fill:none;stroke:rgb(94, 167, 196);;animation:none"></path></g>
<g transform="matrix(-0.8090169943749475,-0.587785252292473,0.587785252292473,-0.8090169943749475,1125.158336594403,1230.5861049401756)" style="transform:none;;animation:none"><path stroke-width="1.5" stroke-opacity="0.2033898305084746" stroke="rgb(95, 167, 196)" fill="none" d="M0 865c254 0 509 0 763 0c254 0 509 0 763 0c254 0 509 0 763 0c254 0 509 0 763 0" transform="matrix(1,0,0,1,-439.1999816894531,0)" style="fill:none;stroke:rgb(95, 167, 196);;animation:none"></path></g>
<g transform="matrix(-0.7771459614569708,-0.6293203910498376,0.6293203910498376,-0.7771459614569708,1082.8927264818853,1248.4724265056411)" style="transform:none;;animation:none"><path stroke-width="1.5" stroke-opacity="0.22033898305084745" stroke="rgb(95, 168, 197)" fill="none" d="M0 865c254 0 509 0 763 0c254 0 509 0 763 0c254 0 509 0 763 0c254 0 509 0 763 0" transform="matrix(1,0,0,1,-445.29998779296875,0)" style="fill:none;stroke:rgb(95, 168, 197);;animation:none"></path></g>
<g transform="matrix(-0.7431448254773942,-0.6691306063588582,0.6691306063588582,-0.7431448254773942,1039.7489421763069,1264.1222243676025)" style="transform:none;;animation:none"><path stroke-width="1.5" stroke-opacity="0.23728813559322035" stroke="rgb(96, 168, 197)" fill="none" d="M0 865c254 0 509 0 763 0c254 0 509 0 763 0c254 0 509 0 763 0c254 0 509 0 763 0" transform="matrix(1,0,0,1,-451.3999938964844,0)" style="fill:none;stroke:rgb(96, 168, 197);;animation:none"></path></g>
<g transform="matrix(-0.7071067811865477,-0.7071067811865475,0.7071067811865475,-0.7071067811865477,995.8452377915609,1277.4926035179242)" style="transform:none;;animation:none"><path stroke-width="1.5" stroke-opacity="0.2542372881355932" stroke="rgb(96, 168, 197)" fill="none" d="M0 865c254 0 509 0 763 0c254 0 509 0 763 0c254 0 509 0 763 0c254 0 509 0 763 0" transform="matrix(1,0,0,1,-457.5000305175781,0)" style="fill:none;stroke:rgb(96, 168, 197);;animation:none"></path></g>
<g transform="matrix(-0.6691306063588581,-0.7431448254773944,0.7431448254773944,-0.6691306063588581,951.3019503296563,1288.5469166767193)" style="transform:none;;animation:none"><path stroke-width="1.5" stroke-opacity="0.2711864406779661" stroke="rgb(97, 169, 198)" fill="none" d="M0 865c254 0 509 0 763 0c254 0 509 0 763 0c254 0 509 0 763 0c254 0 509 0 763 0" transform="matrix(1,0,0,1,-463.5999755859375,0)" style="fill:none;stroke:rgb(97, 169, 198);;animation:none"></path></g>
<g transform="matrix(-0.6293203910498378,-0.7771459614569706,0.7771459614569706,-0.6293203910498378,906.2411698453616,1297.254864739995)" style="transform:none;;animation:none"><path stroke-width="1.5" stroke-opacity="0.288135593220339" stroke="rgb(98, 169, 198)" fill="none" d="M0 865c254 0 509 0 763 0c254 0 509 0 763 0c254 0 509 0 763 0c254 0 509 0 763 0" transform="matrix(1,0,0,1,-469.70001220703125,0)" style="fill:none;stroke:rgb(98, 169, 198);;animation:none"></path></g>
<g transform="matrix(-0.5877852522924732,-0.8090169943749473,0.8090169943749473,-0.5877852522924732,860.7864048058461,1303.592579827392)" style="transform:none;;animation:none"><path stroke-width="1.5" stroke-opacity="0.3050847457627119" stroke="rgb(98, 170, 199)" fill="none" d="M0 865c254 0 509 0 763 0c254 0 509 0 763 0c254 0 509 0 763 0c254 0 509 0 763 0" transform="matrix(1,0,0,1,-475.8000183105469,0)" style="fill:none;stroke:rgb(98, 170, 199);;animation:none"></path></g>
<g transform="matrix(-0.544639035015027,-0.8386705679454242,0.8386705679454242,-0.544639035015027,815.0622435625621,1307.5426907023852)" style="transform:none;;animation:none"><path stroke-width="1.5" stroke-opacity="0.3220338983050847" stroke="rgb(99, 170, 199)" fill="none" d="M0 865c254 0 509 0 763 0c254 0 509 0 763 0c254 0 509 0 763 0c254 0 509 0 763 0" transform="matrix(1,0,0,1,-481.9000244140625,0)" style="fill:none;stroke:rgb(99, 170, 199);;animation:none"></path></g>
<g transform="matrix(-0.5000000000000004,-0.8660254037844384,0.8660254037844384,-0.5000000000000004,769.1940128632307,1309.0943703856344)" style="transform:none;;animation:none"><path stroke-width="1.5" stroke-opacity="0.3389830508474576" stroke="rgb(100, 171, 200)" fill="none" d="M0 865c254 0 509 0 763 0c254 0 509 0 763 0c254 0 509 0 763 0c254 0 509 0 763 0" transform="matrix(1,0,0,1,-488,0)" style="fill:none;stroke:rgb(100, 171, 200);;animation:none"></path></g>
<g transform="matrix(-0.45399049973954697,-0.8910065241883678,0.8910065241883678,-0.45399049973954697,723.3074343399355,1308.2433658309847)" style="transform:none;;animation:none"><path stroke-width="1.5" stroke-opacity="0.3559322033898305" stroke="rgb(101, 172, 201)" fill="none" d="M0 865c254 0 509 0 763 0c254 0 509 0 763 0c254 0 509 0 763 0c254 0 509 0 763 0" transform="matrix(1,0,0,1,-494.1000061035156,0)" style="fill:none;stroke:rgb(101, 172, 201);;animation:none"></path></g>
<g transform="matrix(-0.4067366430758001,-0.913545457642601,0.913545457642601,-0.4067366430758001,677.5282799148727,1304.9920095827667)" style="transform:none;;animation:none"><path stroke-width="1.5" stroke-opacity="0.3728813559322034" stroke="rgb(102, 172, 201)" fill="none" d="M0 865c254 0 509 0 763 0c254 0 509 0 763 0c254 0 509 0 763 0c254 0 509 0 763 0" transform="matrix(1,0,0,1,-500.20001220703125,0)" style="fill:none;stroke:rgb(102, 172, 201);;animation:none"></path></g>
<g transform="matrix(-0.3583679495453007,-0.9335804264972015,0.9335804264972015,-0.3583679495453007,631.9820270682521,1299.3492133824589)" style="transform:none;;animation:none"><path stroke-width="1.5" stroke-opacity="0.3898305084745763" stroke="rgb(103, 173, 202)" fill="none" d="M0 865c254 0 509 0 763 0c254 0 509 0 763 0c254 0 509 0 763 0c254 0 509 0 763 0" transform="matrix(1,0,0,1,-506.29998779296875,0)" style="fill:none;stroke:rgb(103, 173, 202);;animation:none"></path></g>
<g transform="matrix(-0.30901699437494756,-0.9510565162951535,0.9510565162951535,-0.30901699437494756,586.7935149132436,1291.3304437422194)" style="transform:none;;animation:none"><path stroke-width="1.5" stroke-opacity="0.4067796610169492" stroke="rgb(104, 174, 203)" fill="none" d="M0 865c254 0 509 0 763 0c254 0 509 0 763 0c254 0 509 0 763 0c254 0 509 0 763 0" transform="matrix(1,0,0,1,-512.3999633789062,0)" style="fill:none;stroke:rgb(104, 174, 203);;animation:none"></path></g>
<g transform="matrix(-0.25881904510252063,-0.9659258262890683,0.9659258262890683,-0.25881904510252063,542.0866020206499,1280.9576795522548)" style="transform:none;;animation:none"><path stroke-width="1.5" stroke-opacity="0.423728813559322" stroke="rgb(106, 175, 204)" fill="none" d="M0 865c254 0 509 0 763 0c254 0 509 0 763 0c254 0 509 0 763 0c254 0 509 0 763 0" transform="matrix(1,0,0,1,-518.5,0)" style="fill:none;stroke:rgb(106, 175, 204);;animation:none"></path></g>
<g transform="matrix(-0.2079116908177598,-0.9781476007338056,0.9781476007338056,-0.2079116908177598,497.98382693117094,1268.2593518382077)" style="transform:none;;animation:none"><path stroke-width="1.5" stroke-opacity="0.4406779661016949" stroke="rgb(107, 176, 205)" fill="none" d="M0 865c254 0 509 0 763 0c254 0 509 0 763 0c254 0 509 0 763 0c254 0 509 0 763 0" transform="matrix(1,0,0,1,-524.6000366210938,0)" style="fill:none;stroke:rgb(107, 176, 205);;animation:none"></path></g>
<g transform="matrix(-0.15643446504023104,-0.9876883405951377,0.9876883405951377,-0.15643446504023104,454.60607228577913,1253.2702658336925)" style="transform:none;;animation:none"><path stroke-width="1.5" stroke-opacity="0.4576271186440678" stroke="rgb(108, 177, 206)" fill="none" d="M0 865c254 0 509 0 763 0c254 0 509 0 763 0c254 0 509 0 763 0c254 0 509 0 763 0" transform="matrix(1,0,0,1,-530.7000122070312,0)" style="fill:none;stroke:rgb(108, 177, 206);;animation:none"></path></g>
<g transform="matrix(-0.10452846326765336,-0.9945218953682734,0.9945218953682734,-0.10452846326765336,412.07223349480745,1236.0315055815686)" style="transform:none;;animation:none"><path stroke-width="1.5" stroke-opacity="0.4745762711864407" stroke="rgb(110, 178, 207)" fill="none" d="M0 865c254 0 509 0 763 0c254 0 509 0 763 0c254 0 509 0 763 0c254 0 509 0 763 0" transform="matrix(1,0,0,1,-536.7999877929688,0)" style="fill:none;stroke:rgb(110, 178, 207);;animation:none"></path></g>
<g transform="matrix(-0.052335956242944306,-0.9986295347545738,0.9986295347545738,-0.052335956242944306,370.49889285389185,1216.590321325436)" style="transform:none;;animation:none"><path stroke-width="1.5" stroke-opacity="0.4915254237288136" stroke="rgb(111, 179, 208)" fill="none" d="M0 865c254 0 509 0 763 0c254 0 509 0 763 0c254 0 509 0 763 0c254 0 509 0 763 0" transform="matrix(1,0,0,1,-542.9000244140625,0)" style="fill:none;stroke:rgb(111, 179, 208);;animation:none"></path></g>
<g transform="matrix(-1.8369701987210297e-16,-1,1,-1.8369701987210297e-16,330.0000000000001,1195)" style="transform:none;;animation:none"><path stroke-width="1.5" stroke-opacity="0.5084745762711864" stroke="rgb(113, 180, 209)" fill="none" d="M0 865c254 0 509 0 763 0c254 0 509 0 763 0c254 0 509 0 763 0c254 0 509 0 763 0" transform="matrix(1,0,0,1,-549,0)" style="fill:none;stroke:rgb(113, 180, 209);;animation:none"></path></g>
<g transform="matrix(0.052335956242943946,-0.9986295347545738,0.9986295347545738,0.052335956242943946,290.6865595834021,1171.3197191752893)" style="transform:none;;animation:none"><path stroke-width="1.5" stroke-opacity="0.5254237288135594" stroke="rgb(114, 181, 210)" fill="none" d="M0 865c254 0 509 0 763 0c254 0 509 0 763 0c254 0 509 0 763 0c254 0 509 0 763 0" transform="matrix(1,0,0,1,-555.0999755859375,0)" style="fill:none;stroke:rgb(114, 181, 210);;animation:none"></path></g>
<g transform="matrix(0.10452846326765299,-0.9945218953682734,0.9945218953682734,0.10452846326765299,252.66632701163633,1145.6143848550487)" style="transform:none;;animation:none"><path stroke-width="1.5" stroke-opacity="0.5423728813559322" stroke="rgb(116, 182, 211)" fill="none" d="M0 865c254 0 509 0 763 0c254 0 509 0 763 0c254 0 509 0 763 0c254 0 509 0 763 0" transform="matrix(1,0,0,1,-561.2000122070312,0)" style="fill:none;stroke:rgb(116, 182, 211);;animation:none"></path></g>
<g transform="matrix(0.15643446504023067,-0.9876883405951378,0.9876883405951378,0.15643446504023067,216.04351309942706,1117.9544535738928)" style="transform:none;;animation:none"><path stroke-width="1.5" stroke-opacity="0.559322033898305" stroke="rgb(118, 183, 212)" fill="none" d="M0 865c254 0 509 0 763 0c254 0 509 0 763 0c254 0 509 0 763 0c254 0 509 0 763 0" transform="matrix(1,0,0,1,-567.2999877929688,0)" style="fill:none;stroke:rgb(118, 183, 212);;animation:none"></path></g>
<g transform="matrix(0.20791169081775945,-0.9781476007338056,0.9781476007338056,0.20791169081775945,180.9184984340875,1088.4157392808456)" style="transform:none;;animation:none"><path stroke-width="1.5" stroke-opacity="0.576271186440678" stroke="rgb(119, 184, 213)" fill="none" d="M0 865c254 0 509 0 763 0c254 0 509 0 763 0c254 0 509 0 763 0c254 0 509 0 763 0" transform="matrix(1,0,0,1,-573.3999633789062,0)" style="fill:none;stroke:rgb(119, 184, 213);;animation:none"></path></g>
<g transform="matrix(0.2588190451025203,-0.9659258262890684,0.9659258262890684,0.2588190451025203,147.38755823930614,1057.0792055385746)" style="transform:none;;animation:none"><path stroke-width="1.5" stroke-opacity="0.5932203389830508" stroke="rgb(121, 185, 214)" fill="none" d="M0 865c254 0 509 0 763 0c254 0 509 0 763 0c254 0 509 0 763 0c254 0 509 0 763 0" transform="matrix(1,0,0,1,-579.5,0)" style="fill:none;stroke:rgb(121, 185, 214);;animation:none"></path></g>
<g transform="matrix(0.30901699437494723,-0.9510565162951536,0.9510565162951536,0.30901699437494723,115.54259849144876,1024.0307436078901)" style="transform:none;;animation:none"><path stroke-width="1.5" stroke-opacity="0.6101694915254238" stroke="rgb(123, 187, 216)" fill="none" d="M0 865c254 0 509 0 763 0c254 0 509 0 763 0c254 0 509 0 763 0c254 0 509 0 763 0" transform="matrix(1,0,0,1,-585.5999755859375,0)" style="fill:none;stroke:rgb(123, 187, 216);;animation:none"></path></g>
<g transform="matrix(0.3583679495453004,-0.9335804264972017,0.9335804264972017,0.3583679495453004,85.47090401166872,989.3609370257739)" style="transform:none;;animation:none"><path stroke-width="1.5" stroke-opacity="0.6271186440677966" stroke="rgb(124, 188, 217)" fill="none" d="M0 865c254 0 509 0 763 0c254 0 509 0 763 0c254 0 509 0 763 0c254 0 509 0 763 0" transform="matrix(1,0,0,1,-591.7000122070312,0)" style="fill:none;stroke:rgb(124, 188, 217);;animation:none"></path></g>
<g transform="matrix(0.40673664307579976,-0.9135454576426011,0.9135454576426011,0.40673664307579976,57.25489922427778,953.1648133222)" style="transform:none;;animation:none"><path stroke-width="1.5" stroke-opacity="0.6440677966101694" stroke="rgb(126, 189, 218)" fill="none" d="M0 865c254 0 509 0 763 0c254 0 509 0 763 0c254 0 509 0 763 0c254 0 509 0 763 0" transform="matrix(1,0,0,1,-597.7999877929688,0)" style="fill:none;stroke:rgb(126, 189, 218);;animation:none"></path></g>
<g transform="matrix(0.45399049973954664,-0.8910065241883679,0.8910065241883679,0.45399049973954664,30.97192223712659,915.5415835562766)" style="transform:none;;animation:none"><path stroke-width="1.5" stroke-opacity="0.6610169491525424" stroke="rgb(127, 190, 219)" fill="none" d="M0 865c254 0 509 0 763 0c254 0 509 0 763 0c254 0 509 0 763 0c254 0 509 0 763 0" transform="matrix(1,0,0,1,-603.9000244140625,0)" style="fill:none;stroke:rgb(127, 190, 219);;animation:none"></path></g>
<g></g></g><!-- [ldio] generated by https://loading.io --></svg>